<svg width="28" height="28" viewBox="0 0 28 28" fill="none" xmlns="http://www.w3.org/2000/svg">
<path fill-rule="evenodd" clip-rule="evenodd" d="M19.752 8.16683C19.7891 8.08414 19.8065 7.99403 19.8028 7.90354H19.8333C19.7029 4.79039 17.1324 2.3335 14.0058 2.3335C10.8792 2.3335 8.30868 4.79039 8.1782 7.90354C8.16282 7.99063 8.16282 8.07973 8.1782 8.16683H8.087C6.59192 8.16683 4.99374 9.15379 4.52975 11.8069L3.62239 19.034C2.88001 24.3403 5.61239 25.6668 9.17995 25.6668H18.8516C22.4088 25.6668 25.0587 23.746 24.3988 19.034L23.5018 11.8069C22.9553 9.22808 21.4086 8.16683 19.9342 8.16683H19.752ZM18.0754 8.16683C18.0429 8.08276 18.0257 7.99361 18.0246 7.90354C18.0246 5.66646 16.2048 3.85294 13.96 3.85294C11.7152 3.85294 9.89548 5.66646 9.89548 7.90354C9.91086 7.99063 9.91086 8.07973 9.89548 8.16683H18.0754ZM10.6132 14.1735C10.0437 14.1735 9.58208 13.6984 9.58208 13.1123C9.58208 12.5261 10.0437 12.051 10.6132 12.051C11.1826 12.051 11.6443 12.5261 11.6443 13.1123C11.6443 13.6984 11.1826 14.1735 10.6132 14.1735ZM16.3357 13.1123C16.3357 13.6984 16.7973 14.1735 17.3668 14.1735C17.9362 14.1735 18.3979 13.6984 18.3979 13.1123C18.3979 12.5261 17.9362 12.051 17.3668 12.051C16.7973 12.051 16.3357 12.5261 16.3357 13.1123Z" fill="#47593B"/>
</svg>
